<svg width="48" height="48" xmlns="http://www.w3.org/2000/svg">

 <g>
  <title>Layer 1</title>
  <path id="svg_1" d="m25.65,34zm-1.65,10q-4.1,0 -7.75,-1.575q-3.65,-1.575 -6.375,-4.3q-2.725,-2.725 -4.3,-6.375q-1.575,-3.65 -1.575,-7.8q0,-4.1 1.575,-7.75q1.575,-3.65 4.3,-6.35q2.725,-2.7 6.375,-4.275q3.65,-1.575 7.8,-1.575q4.1,0 7.75,1.575q3.65,1.575 6.35,4.275q2.7,2.7 4.275,6.35q1.575,3.65 1.575,7.8q0,4.1 -1.575,7.75q-1.575,3.65 -4.275,6.375t-6.35,4.3q-3.65,1.575 -7.8,1.575zm0.05,-3q7.05,0 12,-4.975t4.95,-12.075q0,-7.05 -4.95,-12t-12.05,-4.95q-7.05,0 -12.025,4.95q-4.975,4.95 -4.975,12.05q0,7.05 4.975,12.025q4.975,4.975 12.075,4.975z"/>
  <rect id="svg_3" height="18" width="4" y="15" x="16.5" fill="#000000"/>
  <rect id="svg_4" height="4" width="15" y="22" x="16.5" fill="#000000"/>
  <rect id="svg_5" height="18" width="4" y="15" x="27.5" fill="#000000"/>
 </g>
</svg>